ply
format ascii 1.0
comment VCGLIB generated
element vertex 130
property float x
property float y
property float z
property float nx
property float ny
property float nz
property float texture_u
property float texture_v
element face 124
property list uchar int vertex_indices
end_header
0 1 -1 0 0.7278807 -0.6857038 0.500000 1.000000
0 1 1 0 0.7278807 0.6857038 0.500000 1.000000
0.19509 0.980785 1 0.1420049 0.7138987 0.6856992 0.597545 0.990393
0.19509 0.980785 -1 0.1420049 0.7138987 -0.6856992 0.597545 0.990393
0.382683 0.92388 1 0.2785449 0.672482 0.6856972 0.691342 0.961940
0.382683 0.923879 -1 0.2785449 0.672482 -0.6856972 0.691342 0.961940
0.55557 0.83147 1 0.4043764 0.6052225 0.6857008 0.777785 0.915735
0.55557 0.831469 -1 0.4043764 0.6052225 -0.6857008 0.777785 0.915735
0.707107 0.707107 1 0.5146824 0.5146824 0.6857144 0.853554 0.853554
0.707107 0.707107 -1 0.5146824 0.5146824 -0.6857144 0.853554 0.853554
0.83147 0.55557 1 0.6052225 0.4043764 0.6857008 0.915735 0.777785
0.83147 0.55557 -1 0.6052225 0.4043764 -0.6857008 0.915735 0.777785
0.92388 0.382684 1 0.672482 0.2785449 0.6856972 0.961940 0.691342
0.92388 0.382683 -1 0.672482 0.2785449 -0.6856972 0.961940 0.691342
0.980785 0.195091 1 0.7138987 0.1420049 0.6856992 0.990393 0.597546
0.980785 0.19509 -1 0.7138987 0.1420049 -0.6856992 0.990393 0.597545
1 0 1 0.7278807 0 0.6857038 1.000000 0.500000
1 -0 -1 0.7278807 0 -0.6857038 1.000000 0.500000
0.980785 -0.19509 1 0.7138987 -0.1420049 0.6856992 0.990393 0.402455
0.980785 -0.19509 -1 0.7138987 -0.1420049 -0.6856992 0.990393 0.402455
0.92388 -0.382683 1 0.672482 -0.2785449 0.6856972 0.961940 0.308658
0.92388 -0.382683 -1 0.672482 -0.2785449 -0.6856972 0.961940 0.308658
0.83147 -0.55557 1 0.6052225 -0.4043764 0.6857008 0.915735 0.222215
0.83147 -0.55557 -1 0.6052225 -0.4043764 -0.6857008 0.915735 0.222215
0.707107 -0.707107 1 0.5146824 -0.5146824 0.6857144 0.853554 0.146446
0.707107 -0.707107 -1 0.5146824 -0.5146824 -0.6857144 0.853554 0.146446
0.55557 -0.831469 1 0.4043764 -0.6052225 0.6857008 0.777785 0.084266
0.55557 -0.83147 -1 0.4043764 -0.6052225 -0.6857008 0.777785 0.084265
0.382683 -0.923879 1 0.2785449 -0.672482 0.6856972 0.691342 0.038060
0.382683 -0.92388 -1 0.2785449 -0.672482 -0.6856972 0.691342 0.038060
0.19509 -0.980785 1 0.1420049 -0.7138987 0.6856992 0.597545 0.009607
0.19509 -0.980785 -1 0.1420049 -0.7138987 -0.6856992 0.597545 0.009607
-0 -1 1 0 -0.7278807 0.6857038 0.500000 0.000000
-0 -1 -1 0 -0.7278807 -0.6857038 0.500000 0.000000
-0.195091 -0.980785 1 -0.1420049 -0.7138987 0.6856992 0.402454 0.009607
-0.195091 -0.980785 -1 -0.1420049 -0.7138987 -0.6856992 0.402454 0.009607
-0.382684 -0.923879 1 -0.2785449 -0.672482 0.6856972 0.308658 0.038060
-0.382684 -0.92388 -1 -0.2785449 -0.672482 -0.6856972 0.308658 0.038060
-0.555571 -0.831469 1 -0.4043764 -0.6052225 0.6857008 0.222214 0.084266
-0.555571 -0.831469 -1 -0.4043764 -0.6052225 -0.6857008 0.222214 0.084266
-0.707107 -0.707106 1 -0.5146824 -0.5146824 0.6857144 0.146446 0.146447
-0.707107 -0.707107 -1 -0.5146824 -0.5146824 -0.6857144 0.146446 0.146446
-0.83147 -0.555569 1 -0.6052225 -0.4043764 0.6857008 0.084265 0.222216
-0.83147 -0.55557 -1 -0.6052225 -0.4043764 -0.6857008 0.084265 0.222215
-0.92388 -0.382683 1 -0.672482 -0.2785449 0.6856972 0.038060 0.308658
-0.92388 -0.382683 -1 -0.672482 -0.2785449 -0.6856972 0.038060 0.308658
-0.980785 -0.195089 1 -0.7138987 -0.1420049 0.6856992 0.009607 0.402456
-0.980785 -0.19509 -1 -0.7138987 -0.1420049 -0.6856992 0.009607 0.402455
-1 1e-06 1 -0.7278807 0 0.6857038 0.000000 0.500000
-1 1e-06 -1 -0.7278807 0 -0.6857038 0.000000 0.500000
-0.980785 0.195092 1 -0.7138987 0.1420049 0.6856992 0.009607 0.597546
-0.980785 0.195091 -1 -0.7138987 0.1420049 -0.6856992 0.009607 0.597546
-0.923879 0.382685 1 -0.672482 0.2785449 0.6856972 0.038060 0.691342
-0.923879 0.382684 -1 -0.672482 0.2785449 -0.6856972 0.038060 0.691342
-0.831469 0.555571 1 -0.6052225 0.4043764 0.6857008 0.084266 0.777786
-0.831469 0.555571 -1 -0.6052225 0.4043764 -0.6857008 0.084266 0.777786
-0.707106 0.707108 1 -0.5146741 0.5147051 0.6857035 0.146447 0.853554
-0.707106 0.707107 -1 -0.5146741 0.5147051 -0.6857035 0.146447 0.853554
-0.555569 0.831471 1 -0.4043764 0.6052225 0.6857008 0.222216 0.915735
-0.555569 0.83147 -1 -0.4043764 0.6052225 -0.6857008 0.222216 0.915735
-0.382682 0.92388 1 -0.2785449 0.672482 0.6856972 0.308659 0.961940
-0.382682 0.92388 -1 -0.2785449 0.672482 -0.6856972 0.308659 0.961940
0.382683 0.92388 1 0.2785449 0.672482 0.6856972 0.691342 0.961940
0.19509 0.980785 1 0.1420049 0.7138987 0.6856992 0.597545 0.990393
0 1 1 0 0.7278807 0.6857038 0.500000 1.000000
-0.195089 0.980786 1 -0.1420049 0.7138987 0.6856992 0.402456 0.990393
-0.382682 0.92388 1 -0.2785449 0.672482 0.6856972 0.308659 0.961940
-0.555569 0.831471 1 -0.4043764 0.6052225 0.6857008 0.222216 0.915735
-0.707106 0.707108 1 -0.5146741 0.5147051 0.6857035 0.146447 0.853554
-0.831469 0.555571 1 -0.6052225 0.4043764 0.6857008 0.084266 0.777786
-0.923879 0.382685 1 -0.672482 0.2785449 0.6856972 0.038060 0.691342
-0.980785 0.195092 1 -0.7138987 0.1420049 0.6856992 0.009607 0.597546
-1 1e-06 1 -0.7278807 0 0.6857038 0.000000 0.500000
-0.980785 -0.195089 1 -0.7138987 -0.1420049 0.6856992 0.009607 0.402456
-0.92388 -0.382683 1 -0.672482 -0.2785449 0.6856972 0.038060 0.308658
-0.83147 -0.555569 1 -0.6052225 -0.4043764 0.6857008 0.084265 0.222216
-0.707107 -0.707106 1 -0.5146824 -0.5146824 0.6857144 0.146446 0.146447
-0.555571 -0.831469 1 -0.4043764 -0.6052225 0.6857008 0.222214 0.084266
-0.382684 -0.923879 1 -0.2785449 -0.672482 0.6856972 0.308658 0.038060
-0.195091 -0.980785 1 -0.1420049 -0.7138987 0.6856992 0.402454 0.009607
-0 -1 1 0 -0.7278807 0.6857038 0.500000 0.000000
0.19509 -0.980785 1 0.1420049 -0.7138987 0.6856992 0.597545 0.009607
0.382683 -0.923879 1 0.2785449 -0.672482 0.6856972 0.691342 0.038060
0.55557 -0.831469 1 0.4043764 -0.6052225 0.6857008 0.777785 0.084266
0.707107 -0.707107 1 0.5146824 -0.5146824 0.6857144 0.853554 0.146446
0.83147 -0.55557 1 0.6052225 -0.4043764 0.6857008 0.915735 0.222215
0.92388 -0.382683 1 0.672482 -0.2785449 0.6856972 0.961940 0.308658
0.980785 -0.19509 1 0.7138987 -0.1420049 0.6856992 0.990393 0.402455
1 0 1 0.7278807 0 0.6857038 1.000000 0.500000
0.980785 0.195091 1 0.7138987 0.1420049 0.6856992 0.990393 0.597546
0.92388 0.382684 1 0.672482 0.2785449 0.6856972 0.961940 0.691342
0.83147 0.55557 1 0.6052225 0.4043764 0.6857008 0.915735 0.777785
0.707107 0.707107 1 0.5146824 0.5146824 0.6857144 0.853554 0.853554
0.55557 0.83147 1 0.4043764 0.6052225 0.6857008 0.777785 0.915735
-0.195089 0.980786 1 -0.1420049 0.7138987 0.6856992 0.402456 0.990393
-0.195089 0.980785 -1 -0.1420049 0.7138987 -0.6856992 0.402456 0.990393
0 1 1 0 0.7278807 0.6857038 0.500000 1.000000
0 1 -1 0 0.7278807 -0.6857038 0.500000 1.000000
-0.195089 0.980785 -1 -0.1420049 0.7138987 -0.6856992 0.402456 0.990393
0 1 -1 0 0.7278807 -0.6857038 0.500000 1.000000
0.19509 0.980785 -1 0.1420049 0.7138987 -0.6856992 0.597545 0.990393
0.382683 0.923879 -1 0.2785449 0.672482 -0.6856972 0.691342 0.961940
0.55557 0.831469 -1 0.4043764 0.6052225 -0.6857008 0.777785 0.915735
0.707107 0.707107 -1 0.5146824 0.5146824 -0.6857144 0.853554 0.853554
0.83147 0.55557 -1 0.6052225 0.4043764 -0.6857008 0.915735 0.777785
0.92388 0.382683 -1 0.672482 0.2785449 -0.6856972 0.961940 0.691342
0.980785 0.19509 -1 0.7138987 0.1420049 -0.6856992 0.990393 0.597545
1 -0 -1 0.7278807 0 -0.6857038 1.000000 0.500000
0.980785 -0.19509 -1 0.7138987 -0.1420049 -0.6856992 0.990393 0.402455
0.92388 -0.382683 -1 0.672482 -0.2785449 -0.6856972 0.961940 0.308658
0.83147 -0.55557 -1 0.6052225 -0.4043764 -0.6857008 0.915735 0.222215
0.707107 -0.707107 -1 0.5146824 -0.5146824 -0.6857144 0.853554 0.146446
0.55557 -0.83147 -1 0.4043764 -0.6052225 -0.6857008 0.777785 0.084265
0.382683 -0.92388 -1 0.2785449 -0.672482 -0.6856972 0.691342 0.038060
0.19509 -0.980785 -1 0.1420049 -0.7138987 -0.6856992 0.597545 0.009607
-0 -1 -1 0 -0.7278807 -0.6857038 0.500000 0.000000
-0.195091 -0.980785 -1 -0.1420049 -0.7138987 -0.6856992 0.402454 0.009607
-0.382684 -0.92388 -1 -0.2785449 -0.672482 -0.6856972 0.308658 0.038060
-0.555571 -0.831469 -1 -0.4043764 -0.6052225 -0.6857008 0.222214 0.084266
-0.707107 -0.707107 -1 -0.5146824 -0.5146824 -0.6857144 0.146446 0.146446
-0.83147 -0.55557 -1 -0.6052225 -0.4043764 -0.6857008 0.084265 0.222215
-0.92388 -0.382683 -1 -0.672482 -0.2785449 -0.6856972 0.038060 0.308658
-0.980785 -0.19509 -1 -0.7138987 -0.1420049 -0.6856992 0.009607 0.402455
-1 1e-06 -1 -0.7278807 0 -0.6857038 0.000000 0.500000
-0.980785 0.195091 -1 -0.7138987 0.1420049 -0.6856992 0.009607 0.597546
-0.923879 0.382684 -1 -0.672482 0.2785449 -0.6856972 0.038060 0.691342
-0.831469 0.555571 -1 -0.6052225 0.4043764 -0.6857008 0.084266 0.777786
-0.707106 0.707107 -1 -0.5146741 0.5147051 -0.6857035 0.146447 0.853554
-0.555569 0.83147 -1 -0.4043764 0.6052225 -0.6857008 0.222216 0.915735
-0.382682 0.92388 -1 -0.2785449 0.672482 -0.6856972 0.308659 0.961940
3 0 1 2 
3 0 2 3 
3 3 2 4 
3 3 4 5 
3 5 4 6 
3 5 6 7 
3 7 6 8 
3 7 8 9 
3 9 8 10 
3 9 10 11 
3 11 10 12 
3 11 12 13 
3 13 12 14 
3 13 14 15 
3 15 14 16 
3 15 16 17 
3 17 16 18 
3 17 18 19 
3 19 18 20 
3 19 20 21 
3 21 20 22 
3 21 22 23 
3 23 22 24 
3 23 24 25 
3 25 24 26 
3 25 26 27 
3 27 26 28 
3 27 28 29 
3 29 28 30 
3 29 30 31 
3 31 30 32 
3 31 32 33 
3 33 32 34 
3 33 34 35 
3 35 34 36 
3 35 36 37 
3 37 36 38 
3 37 38 39 
3 39 38 40 
3 39 40 41 
3 41 40 42 
3 41 42 43 
3 43 42 44 
3 43 44 45 
3 45 44 46 
3 45 46 47 
3 47 46 48 
3 47 48 49 
3 49 48 50 
3 49 50 51 
3 51 50 52 
3 51 52 53 
3 53 52 54 
3 53 54 55 
3 55 54 56 
3 55 56 57 
3 57 56 58 
3 57 58 59 
3 59 58 60 
3 59 60 61 
3 62 63 64 
3 64 65 66 
3 66 67 68 
3 68 69 70 
3 70 71 72 
3 72 73 74 
3 74 75 76 
3 76 77 78 
3 78 79 80 
3 80 81 82 
3 82 83 84 
3 84 85 86 
3 86 87 88 
3 88 89 90 
3 90 91 92 
3 92 93 62 
3 62 64 66 
3 66 68 70 
3 70 72 74 
3 74 76 78 
3 78 80 82 
3 82 84 86 
3 86 88 90 
3 90 92 62 
3 62 66 70 
3 70 74 78 
3 78 82 86 
3 86 90 62 
3 62 70 78 
3 78 86 62 
3 61 60 94 
3 61 94 95 
3 95 94 96 
3 95 96 97 
3 98 99 100 
3 100 101 102 
3 102 103 104 
3 104 105 106 
3 106 107 108 
3 108 109 110 
3 110 111 112 
3 112 113 114 
3 114 115 116 
3 116 117 118 
3 118 119 120 
3 120 121 122 
3 122 123 124 
3 124 125 126 
3 126 127 128 
3 128 129 98 
3 98 100 102 
3 102 104 106 
3 106 108 110 
3 110 112 114 
3 114 116 118 
3 118 120 122 
3 122 124 126 
3 126 128 98 
3 98 102 106 
3 106 110 114 
3 114 118 122 
3 122 126 98 
3 98 106 114 
3 114 122 98 
